# xmcd
#
# Track frame offsets:
#	150
#	20107
#	40895
#	60727
#	78212
#	100860
#	120460
#	141755
#	163812
#	183345
#	201112
#	221150
#	240060
#	258725
#	276077
#	291995
#	309832
#	326082
#
# Disc length: 4575 seconds
#
# Revision: 0
# Processed by: cddbd v1.4PL0 Copyright (c) Steve Scherf et al.
# Submitted via: dBpowerAMP V4.0
#
DISCID=0611dd12
DTITLE=¬Í¿˚—«.ø≠¿Ú - Mariah Carey # 1's
DYEAR=1900
DGENRE=blues
TTITLE0=Sweetheart
TTITLE1=When You Believe (Mariah Carey and Whitney Houston)
TTITLE2=Whenever You Call
TTITLE3=My All
TTITLE4=Honey
TTITLE5=Always Be My Baby
TTITLE6=One Sweet Day (Mariah Carey and Boys II men)
TTITLE7=Fantasy (featuring O.D.B)
TTITLE8=Hero
TTITLE9=Dreamlover
TTITLE10=I'll be there (featuring Trey Lorenz)
TTITLE11=Emotions
TTITLE12=Someday
TTITLE13=Love Takes Time
TTITLE14=Vision Of Love
TTITLE15=I Still Believe
TTITLE16=Without You
TTITLE17=Do You Know Where You're Going To (Theme from Mahogany)
EXTD=∞¢Ω‹“Ù¿÷π§◊˜ “
EXTT0=
EXTT1=
EXTT2=
EXTT3=
EXTT4=
EXTT5=
EXTT6=
EXTT7=
EXTT8=
EXTT9=
EXTT10=
EXTT11=
EXTT12=
EXTT13=
EXTT14=
EXTT15=
EXTT16=
EXTT17=
PLAYORDER=
